<?xml version="1.0" encoding="utf-8"?>
<!-- Generator: Adobe Illustrator 26.4.1, SVG Export Plug-In . SVG Version: 6.00 Build 0)  -->
<svg version="1.1" id="Layer_1" xmlns="http://www.w3.org/2000/svg" xmlns:xlink="http://www.w3.org/1999/xlink" x="0px" y="0px"
	 viewBox="0 0 986.9 986.9" style="enable-background:new 0 0 986.9 986.9;" xml:space="preserve">
<style type="text/css">
	.st0{fill:#FFFFFF;}
</style>
<g>
	<g>
		<path class="st0" d="M493.5,26c258.2,0,467.5,209.3,467.5,467.5S751.6,960.9,493.5,960.9S26,751.6,26,493.5S235.3,26,493.5,26
			 M493.5,0c-66.6,0-131.2,13.1-192.1,38.8c-58.8,24.9-111.5,60.4-156.8,105.7c-45.3,45.3-80.9,98.1-105.7,156.8
			C13.1,362.2,0,426.9,0,493.5c0,66.6,13.1,131.2,38.8,192.1c24.9,58.8,60.4,111.5,105.7,156.8c45.3,45.3,98.1,80.9,156.8,105.7
			c60.9,25.7,125.5,38.8,192.1,38.8c66.6,0,131.2-13.1,192.1-38.8c58.8-24.9,111.5-60.4,156.8-105.7
			c45.3-45.3,80.9-98.1,105.7-156.8c25.7-60.9,38.8-125.5,38.8-192.1c0-66.6-13.1-131.2-38.8-192.1
			c-24.9-58.8-60.4-111.5-105.7-156.8c-45.3-45.3-98.1-80.9-156.8-105.7C624.7,13.1,560.1,0,493.5,0L493.5,0z"/>
	</g>
</g>
<ellipse id="L_Eye_00000163793262652931064850000000241180332403621038_" class="st0" cx="373.2" cy="313.4" rx="50" ry="136.9"/>
<ellipse id="R_Eye_00000161627909639003159830000009073974412580560008_" class="st0" cx="624.1" cy="313.4" rx="50" ry="136.9"/>
<g id="Mouth_00000075146133271629958100000001583756443063966090_">
	<path class="st0" d="M800.5,515.8c0,7.8-0.3,15.7-1,23.5c-0.3,3.8-0.7,7.5-1.2,11.2c-0.1,0.9-0.2,1.8-0.3,2.6
		c0.3-2.3,0-0.1-0.1,0.3c-0.3,2.2-0.7,4.3-1.1,6.5c-2.6,15-6.5,29.8-11.5,44.1c-1.1,3.3-2.3,6.5-3.6,9.7c-0.3,0.8-0.6,1.6-1,2.4
		c0.1-0.2-1.5,3.7-0.8,1.9c0.6-1.5-0.4,1-0.6,1.3c-0.4,1-0.9,2-1.3,3c-3.2,7.1-6.6,14-10.3,20.8c-3.5,6.4-7.3,12.7-11.3,18.8
		c-2,3.1-4.1,6.1-6.2,9.1c-1,1.4-2,2.8-3,4.2c-0.6,0.9-1.3,1.7-1.9,2.6c-1.5,2,0.4-0.4-0.6,0.8c-9.2,11.8-19.2,22.9-30,33.3
		c-5.7,5.4-11.5,10.7-17.6,15.7c-1.4,1.1-2.7,2.2-4.1,3.3c-0.7,0.5-1.4,1.1-2.1,1.6c1.9-1.5,0.1-0.1-0.3,0.2c-3.2,2.4-6.3,4.7-9.6,7
		c-12.7,9-26.1,17-39.9,24.1c-7,3.6-14.2,6.9-21.4,10c-2.2,0.9,1.9-0.8-0.3,0.1c-0.8,0.3-1.7,0.7-2.5,1c-1.9,0.8-3.8,1.5-5.7,2.2
		c-3.8,1.5-7.7,2.8-11.6,4.1c-61.7,20.8-127.6,23-190,6.7c-7.8-2-15.5-4.3-23.1-6.9c-3.7-1.2-7.3-2.6-11-3.9c-1.7-0.6-3.4-1.3-5.1-2
		c-0.8-0.3-1.7-0.7-2.5-1c0,0-4-1.7-1.7-0.7c-14.4-6.2-28.4-13.3-41.9-21.4c-6.4-3.9-12.7-8-18.9-12.4c-2.5-1.8-6.9-5-8.1-6
		c1.5,1.2-1.9-1.5-1.7-1.3c-0.7-0.5-1.4-1.1-2.1-1.6c-1.5-1.2-3.1-2.5-4.6-3.7c-11.7-9.7-22.8-20.3-32.9-31.6
		c-2.5-2.7-4.9-5.5-7.2-8.3c-1.1-1.3-2.2-2.7-3.3-4c-0.5-0.7-1.1-1.3-1.6-2c-2.7-3.3,1.6,2.2-0.9-1.2c-4.4-5.9-8.7-11.8-12.7-17.9
		c-8.2-12.6-15.5-25.8-21.6-39.6c-0.7-1.6-1.4-3.2-2.1-4.7c-1.6-3.8,0.6,1.6-0.3-0.7c-0.3-0.8-0.6-1.6-1-2.4
		c-1.4-3.6-2.8-7.2-4.1-10.9c-2.5-7.2-4.7-14.4-6.6-21.8c-1.9-7.4-3.5-14.9-4.8-22.4c-0.3-1.7-0.6-3.5-0.8-5.2
		c-0.1-0.6-0.9-6.3-0.5-3.5c-0.5-4-0.9-7.9-1.2-11.9c-0.6-7.6-0.9-15.2-0.9-22.8c0-7.6-6.3-14.1-13.9-14.1
		c-7.5,0-14.1,6.3-14.1,13.9c0.2,64.6,21.9,128,61.3,179.2c40.4,52.6,96.1,91.5,158.9,112.9c65.8,22.4,138.7,24.7,205.9,7.2
		C648,798.5,707.2,763.7,751,714.7c43.4-48.5,70.8-109.6,76.4-174.6c0.7-8,1-16.1,1-24.2c0-7.6-6.3-14.1-13.9-14.1
		C807,501.8,800.5,508.2,800.5,515.8L800.5,515.8z"/>
</g>
<g id="L_Dimple_00000090258765502531784030000013413272733823101069_">
	<path class="st0" d="M147.5,534.1c-5,4.1,0.1,0.1,1.7-0.9c1.6-0.9,3.2-1.7,4.9-2.5c3.2-1.6-1.4,0.4,0.9-0.4
		c1.2-0.4,2.4-0.9,3.6-1.3c13.1-4.3,26-4.5,40.7-1.1c6.6,1.5,13.5-2.1,15.4-8.8c1.7-6.3-2.2-13.8-8.8-15.4
		c-25.2-5.8-55.3-4.3-76.2,12.7c-5.2,4.3-4.3,13.3,0.1,17.7C135,539.4,142.2,538.4,147.5,534.1L147.5,534.1z"/>
</g>
<g id="R_Dimple_00000070078356873471871590000006515702800315893380_">
	<path class="st0" d="M855.3,513.1c-20.8-16.9-50.9-18.4-76-12.6c-15.7,3.6-9.2,27.8,6.5,24.1c14.6-3.4,27.6-3.3,40.7,1
		c1.2,0.4,2.4,0.9,3.6,1.3c2.2,0.7-2.1-1.1,1,0.4c1.6,0.8,3.3,1.6,4.9,2.5c1.7,1,6.3,4.6,1.7,0.9c5.2,4.3,12.6,5,17.7-0.1
		C859.8,526.3,860.5,517.4,855.3,513.1L855.3,513.1z"/>
</g>
</svg>
